#Comment line ignore any data following # character 
#Hierarchical Translation and Rotation (.htr) file 
[Header]	
#Header keywords are followed by a single value 
FileType HTR		#Single word string
DataType HTRS		#Translation followed by rotation and scale data
FileVersion 1		#integer
NumSegments 84		#integer
NumFrames 2		#integer
DataFrameRate 30		#integer, data frame rate in this file
EulerRotationOrder ZYX
CalibrationUnits mm
RotationUnits Degrees
GlobalAxisofGravity Y
BoneLengthAxis Y
ScaleFactor 1.00
[SegmentNames&Hierarchy]
#CHILD	PARENT
MASTER GLOBAL
root MASTER
chest root
L_mid_tent01 root
R_mid_tent01 root
spine01 root
Bip01_Neck chest
L_humerus chest
R_humerus chest
weapon_bone chest
Bip01_Head Bip01_Neck
eye_left_bone Bip01_Head
eye_right_bone Bip01_Head
L_forearm L_humerus
L_front_hand L_forearm
L_weapon_bone L_forearm
L_front_hand01_01 L_front_hand
L_front_hand02_01 L_front_hand
L_front_hand03_01 L_front_hand
L_front_hand01_02 L_front_hand01_01
L_front_hand02_02 L_front_hand02_01
L_front_hand03_02 L_front_hand03_01
R_forearm R_humerus
R_front_hand R_forearm
R_weapon_bone R_forearm
R_front_hand01_01 R_front_hand
R_front_hand02_01 R_front_hand
R_front_hand03_01 R_front_hand
R_front_hand01_02 R_front_hand01_01
R_front_hand02_02 R_front_hand02_01
R_front_hand03_02 R_front_hand03_01
null_rope01_connect L_mid_tent01
Rope1_Seg01 null_rope01_connect
Rope1_Seg02 Rope1_Seg01
Rope1_Seg03 Rope1_Seg02
Rope1_Seg04 Rope1_Seg03
Rope1_Seg05 Rope1_Seg04
Rope1_Seg06 Rope1_Seg05
Rope1_Seg07 Rope1_Seg06
Rope1_Seg09 Rope1_Seg07
L_mid_hand01 Rope1_Seg09
L_mid_hand02 Rope1_Seg09
L_mid_hand03 Rope1_Seg09
null_rope02_connect R_mid_tent01
Rope2_Seg01 null_rope02_connect
Rope2_Seg02 Rope2_Seg01
Rope2_Seg03 Rope2_Seg02
Rope2_Seg04 Rope2_Seg03
Rope2_Seg05 Rope2_Seg04
Rope2_Seg06 Rope2_Seg05
Rope2_Seg07 Rope2_Seg06
Rope2_Seg09 Rope2_Seg07
R_mid_hand01 Rope2_Seg09
R_mid_hand02 Rope2_Seg09
R_mid_hand03 Rope2_Seg09
spine02 spine01
spine03 spine02
pelvis spine03
null_rope03_connect pelvis
null_rope04_connect pelvis
Rope3_Seg01 null_rope03_connect
Rope3_Seg02 Rope3_Seg01
Rope3_Seg03 Rope3_Seg02
Rope3_Seg04 Rope3_Seg03
Rope3_Seg05 Rope3_Seg04
Rope3_Seg06 Rope3_Seg05
Rope3_Seg07 Rope3_Seg06
Rope3_Seg08 Rope3_Seg07
Rope3_Seg09 Rope3_Seg08
R_rear_hand01 Rope3_Seg09
R_rear_hand02 Rope3_Seg09
R_rear_hand03 Rope3_Seg09
Rope4_Seg01 null_rope04_connect
Rope4_Seg02 Rope4_Seg01
Rope4_Seg03 Rope4_Seg02
Rope4_Seg04 Rope4_Seg03
Rope4_Seg05 Rope4_Seg04
Rope4_Seg06 Rope4_Seg05
Rope4_Seg07 Rope4_Seg06
Rope4_Seg08 Rope4_Seg07
Rope4_Seg09 Rope4_Seg08
L_rear_hand01 Rope4_Seg09
L_rear_hand02 Rope4_Seg09
L_rear_hand03 Rope4_Seg09
[BasePosition]
#SegmentName Tx, Ty, Tz, Rx, Ry, Rz, BoneLength
MASTER 0.000000 0.000000 0.000000 -90.000000 0.000000 0.000000 10.000000 
root 0.000000 0.000000 0.000000 0.000000 0.000000 0.000000 10.000000 
chest 0.000000 0.000000 0.000000 0.000000 0.000000 0.000000 10.000000 
L_mid_tent01 0.000000 0.000000 0.000000 0.000000 0.000000 0.000000 10.000000 
R_mid_tent01 0.000000 0.000000 0.000000 0.000000 0.000000 0.000000 10.000000 
spine01 0.000000 0.000000 0.000000 0.000000 0.000000 0.000000 10.000000 
Bip01_Neck 0.000000 0.000000 0.000000 0.000000 0.000000 0.000000 10.000000 
L_humerus 0.000000 0.000000 0.000000 0.000000 0.000000 0.000000 10.000000 
R_humerus 0.000000 0.000000 0.000000 0.000000 0.000000 0.000000 10.000000 
weapon_bone 0.000000 0.000000 0.000000 0.000000 0.000000 0.000000 10.000000 
Bip01_Head 0.000000 0.000000 0.000000 0.000000 0.000000 0.000000 10.000000 
eye_left_bone 0.000000 0.000000 0.000000 0.000000 0.000000 0.000000 10.000000 
eye_right_bone 0.000000 0.000000 0.000000 0.000000 0.000000 0.000000 10.000000 
L_forearm 0.000000 0.000000 0.000000 0.000000 0.000000 0.000000 10.000000 
L_front_hand 0.000000 0.000000 0.000000 0.000000 0.000000 0.000000 10.000000 
L_weapon_bone 0.000000 0.000000 0.000000 0.000000 0.000000 0.000000 10.000000 
L_front_hand01_01 0.000000 0.000000 0.000000 0.000000 0.000000 0.000000 10.000000 
L_front_hand02_01 0.000000 0.000000 0.000000 0.000000 0.000000 0.000000 10.000000 
L_front_hand03_01 0.000000 0.000000 0.000000 0.000000 0.000000 0.000000 10.000000 
L_front_hand01_02 0.000000 0.000000 0.000000 0.000000 0.000000 0.000000 10.000000 
L_front_hand02_02 0.000000 0.000000 0.000000 0.000000 0.000000 0.000000 10.000000 
L_front_hand03_02 0.000000 0.000000 0.000000 0.000000 0.000000 0.000000 10.000000 
R_forearm 0.000000 0.000000 0.000000 0.000000 0.000000 0.000000 10.000000 
R_front_hand 0.000000 0.000000 0.000000 0.000000 0.000000 0.000000 10.000000 
R_weapon_bone 0.000000 0.000000 0.000000 0.000000 0.000000 0.000000 10.000000 
R_front_hand01_01 0.000000 0.000000 0.000000 0.000000 0.000000 0.000000 10.000000 
R_front_hand02_01 0.000000 0.000000 0.000000 0.000000 0.000000 0.000000 10.000000 
R_front_hand03_01 0.000000 0.000000 0.000000 0.000000 0.000000 0.000000 10.000000 
R_front_hand01_02 0.000000 0.000000 0.000000 0.000000 0.000000 0.000000 10.000000 
R_front_hand02_02 0.000000 0.000000 0.000000 0.000000 0.000000 0.000000 10.000000 
R_front_hand03_02 0.000000 0.000000 0.000000 0.000000 0.000000 0.000000 10.000000 
null_rope01_connect 0.000000 0.000000 0.000000 0.000000 0.000000 0.000000 10.000000 
Rope1_Seg01 0.000000 0.000000 0.000000 0.000000 0.000000 0.000000 10.000000 
Rope1_Seg02 0.000000 0.000000 0.000000 0.000000 0.000000 0.000000 10.000000 
Rope1_Seg03 0.000000 0.000000 0.000000 0.000000 0.000000 0.000000 10.000000 
Rope1_Seg04 0.000000 0.000000 0.000000 0.000000 0.000000 0.000000 10.000000 
Rope1_Seg05 0.000000 0.000000 0.000000 0.000000 0.000000 0.000000 10.000000 
Rope1_Seg06 0.000000 0.000000 0.000000 0.000000 0.000000 0.000000 10.000000 
Rope1_Seg07 0.000000 0.000000 0.000000 0.000000 0.000000 0.000000 10.000000 
Rope1_Seg09 0.000000 0.000000 0.000000 0.000000 0.000000 0.000000 10.000000 
L_mid_hand01 0.000000 0.000000 0.000000 0.000000 0.000000 0.000000 10.000000 
L_mid_hand02 0.000000 0.000000 0.000000 0.000000 0.000000 0.000000 10.000000 
L_mid_hand03 0.000000 0.000000 0.000000 0.000000 0.000000 0.000000 10.000000 
null_rope02_connect 0.000000 0.000000 0.000000 0.000000 0.000000 0.000000 10.000000 
Rope2_Seg01 0.000000 0.000000 0.000000 0.000000 0.000000 0.000000 10.000000 
Rope2_Seg02 0.000000 0.000000 0.000000 0.000000 0.000000 0.000000 10.000000 
Rope2_Seg03 0.000000 0.000000 0.000000 0.000000 0.000000 0.000000 10.000000 
Rope2_Seg04 0.000000 0.000000 0.000000 0.000000 0.000000 0.000000 10.000000 
Rope2_Seg05 0.000000 0.000000 0.000000 0.000000 0.000000 0.000000 10.000000 
Rope2_Seg06 0.000000 0.000000 0.000000 0.000000 0.000000 0.000000 10.000000 
Rope2_Seg07 0.000000 0.000000 0.000000 0.000000 0.000000 0.000000 10.000000 
Rope2_Seg09 0.000000 0.000000 0.000000 0.000000 0.000000 0.000000 10.000000 
R_mid_hand01 0.000000 0.000000 0.000000 0.000000 0.000000 0.000000 10.000000 
R_mid_hand02 0.000000 0.000000 0.000000 0.000000 0.000000 0.000000 10.000000 
R_mid_hand03 0.000000 0.000000 0.000000 0.000000 0.000000 0.000000 10.000000 
spine02 0.000000 0.000000 0.000000 0.000000 0.000000 0.000000 10.000000 
spine03 0.000000 0.000000 0.000000 0.000000 0.000000 0.000000 10.000000 
pelvis 0.000000 0.000000 0.000000 0.000000 0.000000 0.000000 10.000000 
null_rope03_connect 0.000000 0.000000 0.000000 0.000000 0.000000 0.000000 10.000000 
null_rope04_connect 0.000000 0.000000 0.000000 0.000000 0.000000 0.000000 10.000000 
Rope3_Seg01 0.000000 0.000000 0.000000 0.000000 0.000000 0.000000 10.000000 
Rope3_Seg02 0.000000 0.000000 0.000000 0.000000 0.000000 0.000000 10.000000 
Rope3_Seg03 0.000000 0.000000 0.000000 0.000000 0.000000 0.000000 10.000000 
Rope3_Seg04 0.000000 0.000000 0.000000 0.000000 0.000000 0.000000 10.000000 
Rope3_Seg05 0.000000 0.000000 0.000000 0.000000 0.000000 0.000000 10.000000 
Rope3_Seg06 0.000000 0.000000 0.000000 0.000000 0.000000 0.000000 10.000000 
Rope3_Seg07 0.000000 0.000000 0.000000 0.000000 0.000000 0.000000 10.000000 
Rope3_Seg08 0.000000 0.000000 0.000000 0.000000 0.000000 0.000000 10.000000 
Rope3_Seg09 0.000000 0.000000 0.000000 0.000000 0.000000 0.000000 10.000000 
R_rear_hand01 0.000000 0.000000 0.000000 0.000000 0.000000 0.000000 10.000000 
R_rear_hand02 0.000000 0.000000 0.000000 0.000000 0.000000 0.000000 10.000000 
R_rear_hand03 0.000000 0.000000 0.000000 0.000000 0.000000 0.000000 10.000000 
Rope4_Seg01 0.000000 0.000000 0.000000 0.000000 0.000000 0.000000 10.000000 
Rope4_Seg02 0.000000 0.000000 0.000000 0.000000 0.000000 0.000000 10.000000 
Rope4_Seg03 0.000000 0.000000 0.000000 0.000000 0.000000 0.000000 10.000000 
Rope4_Seg04 0.000000 0.000000 0.000000 0.000000 0.000000 0.000000 10.000000 
Rope4_Seg05 0.000000 0.000000 0.000000 0.000000 0.000000 0.000000 10.000000 
Rope4_Seg06 0.000000 0.000000 0.000000 0.000000 0.000000 0.000000 10.000000 
Rope4_Seg07 0.000000 0.000000 0.000000 0.000000 0.000000 0.000000 10.000000 
Rope4_Seg08 0.000000 0.000000 0.000000 0.000000 0.000000 0.000000 10.000000 
Rope4_Seg09 0.000000 0.000000 0.000000 0.000000 0.000000 0.000000 10.000000 
L_rear_hand01 0.000000 0.000000 0.000000 0.000000 0.000000 0.000000 10.000000 
L_rear_hand02 0.000000 0.000000 0.000000 0.000000 0.000000 0.000000 10.000000 
L_rear_hand03 0.000000 0.000000 0.000000 0.000000 0.000000 0.000000 10.000000 
#Beginning of Data. Separated by tabs
#Fr	Tx	Ty	Tz	Rx	Ry	Rz	SF
[MASTER]
18 0.000003 -0.000059 -2738.867920 0.001660 0.001660 0.001660 2738.867920
19 0.000003 -0.000055 -2986.639893 0.001660 0.001660 0.001660 2986.639893
[root]
18 -16.502300 -12.779808 1460.408203 -95.854286 -30.729984 -89.458511 1460.557373
19 -16.502300 -10.979029 1459.348633 -90.697945 -27.230749 -91.329910 1459.483276
[chest]
18 -84.512650 -34.090519 0.000000 1.428176 -7.445108 156.390503 91.129311
19 -84.512650 -34.090519 0.000000 2.845330 -6.000646 153.678116 91.129311
[L_mid_tent01]
18 27.299257 22.178610 -249.918579 2.824435 18.090481 79.924355 252.381531
19 27.299255 22.178625 -249.918579 2.507267 9.013493 79.387260 252.381531
[R_mid_tent01]
18 23.228794 24.509907 226.238495 164.244583 -28.128338 80.850548 228.744751
19 23.228794 24.509907 226.238495 165.586868 -15.488760 76.738060 228.744751
[spine01]
18 -0.361383 -0.195265 0.000000 0.002062 0.001122 32.879829 0.410763
19 -0.361383 -0.195265 0.000000 0.002062 0.001122 32.879829 0.410763
[Bip01_Neck]
18 165.484543 71.581718 0.000119 176.643677 -1.657967 43.431911 180.302734
19 165.484543 71.581718 0.000119 176.643677 -1.657966 43.431908 180.302734
[L_humerus]
18 -13.983130 -135.272980 -120.471481 108.752693 71.721138 -120.994942 181.680161
19 -13.983130 -135.272980 -120.471481 130.731628 65.789307 -97.111839 181.680161
[R_humerus]
18 -13.983309 -135.273102 125.287651 -172.474930 -10.578333 -97.659111 184.909012
19 -13.983309 -135.273102 125.287651 -173.323181 -8.975118 -95.729698 184.909012
[weapon_bone]
18 235.964890 -300.705902 0.000000 0.000000 -89.951546 -128.212341 382.234833
19 235.964890 -300.705902 0.000000 0.000000 -89.951546 -128.212341 382.234833
[Bip01_Head]
18 213.416809 185.791779 10.791682 31.999352 0.136536 -43.901230 283.163879
19 213.472534 185.636841 12.792777 31.873007 0.257741 -43.902199 283.187592
[eye_left_bone]
18 -24.626970 125.451866 -64.772606 0.000000 -90.000000 -99.840431 143.318359
19 -24.626970 125.451866 -64.772606 0.000000 -90.000000 -99.840431 143.318359
[eye_right_bone]
18 -24.626970 125.451866 64.327362 0.000000 -89.965736 80.156380 143.117676
19 -24.626970 125.451866 64.327362 0.000000 -89.972023 80.156380 143.117676
[L_forearm]
18 322.776093 0.000000 -0.000119 0.000134 -0.002343 -96.558411 322.776093
19 322.776093 0.000000 -0.000119 0.000129 -0.002344 -96.279816 322.776093
[L_front_hand]
18 241.149185 -0.042021 -3.300071 -178.602844 -1.790141 -29.456451 241.171753
19 241.149185 -0.042021 -3.300071 -178.614410 -1.798283 -29.136705 241.171753
[L_weapon_bone]
18 156.183838 0.000000 0.000000 0.000014 0.000007 0.000001 156.183838
19 156.183838 0.000000 0.000000 0.000014 0.000007 0.000001 156.183838
[L_front_hand01_01]
18 86.095154 20.947098 -0.655860 -0.366594 -0.477154 75.385574 88.609184
19 86.095154 20.947098 -0.655860 -0.366594 -0.477154 75.385574 88.609184
[L_front_hand02_01]
18 86.935165 -11.437475 24.513514 154.399796 -59.883835 -61.369587 91.046425
19 86.935165 -11.437475 24.513514 154.399811 -59.883827 -61.369587 91.046425
[L_front_hand03_01]
18 86.637497 -14.123976 -20.424902 -153.913849 58.118122 -62.702866 90.126129
19 86.637497 -14.123976 -20.424902 -153.913879 58.118130 -62.702892 90.126129
[L_front_hand01_02]
18 71.020905 -0.000179 0.000030 0.000334 -0.002323 -106.379684 71.020905
19 71.020905 -0.000179 0.000030 0.000334 -0.002323 -106.379684 71.020905
[L_front_hand02_02]
18 71.020927 -0.000119 0.000060 0.000334 -0.002323 -106.379684 71.020927
19 71.020927 -0.000119 0.000060 0.000334 -0.002323 -106.379684 71.020927
[L_front_hand03_02]
18 71.020905 -0.000060 0.000060 0.000334 -0.002323 -106.379684 71.020905
19 71.020905 -0.000060 0.000060 0.000334 -0.002323 -106.379684 71.020905
[R_forearm]
18 322.776428 -0.000060 0.000030 0.212787 0.017213 -94.877380 322.776428
19 322.776428 -0.000060 0.000030 0.209471 0.013116 -94.628700 322.776428
[R_front_hand]
18 238.847015 -0.006795 2.210259 -2.189935 -10.743078 -28.706213 238.857239
19 238.847015 -0.006795 2.210259 -2.257257 -10.728909 -28.336014 238.857239
[R_weapon_bone]
18 155.664093 0.002503 -0.000030 0.003487 0.001180 -90.988930 155.664078
19 155.664093 0.002503 -0.000030 0.003487 0.001180 -90.988930 155.664078
[R_front_hand01_01]
18 87.624611 14.231146 22.918642 -154.633484 -59.950607 61.746033 91.683487
19 87.624611 14.231146 22.918642 -154.633514 -59.950634 61.746063 91.683487
[R_front_hand02_01]
18 89.356956 14.367283 -19.491137 154.602661 58.302849 63.744389 92.579636
19 89.356956 14.367283 -19.491137 154.602661 58.302849 63.744389 92.579636
[R_front_hand03_01]
18 87.286232 -22.307278 -0.143439 0.162155 -0.423168 -75.767906 90.091743
19 87.286232 -22.307278 -0.143439 0.162155 -0.423168 -75.767921 90.091743
[R_front_hand01_02]
18 71.020905 0.000060 0.000119 0.002323 -0.000334 106.381721 71.020905
19 71.020905 0.000060 0.000119 0.002323 -0.000334 106.381714 71.020905
[R_front_hand02_02]
18 71.020844 -0.000030 -0.000119 0.002323 -0.000334 106.381721 71.020836
19 71.020844 -0.000030 -0.000119 0.002323 -0.000334 106.381714 71.020836
[R_front_hand03_02]
18 71.020905 0.000000 0.000030 0.002323 -0.000334 106.381721 71.020905
19 71.020905 0.000000 0.000030 0.002323 -0.000334 106.381714 71.020905
[null_rope01_connect]
18 328.732483 0.000000 -0.000238 -135.458786 -66.476173 177.099854 328.732483
19 328.732483 0.000000 -0.000238 -124.078377 -78.939323 162.078369 328.732483
[Rope1_Seg01]
18 0.000033 -0.000049 0.000133 -4.255506 18.747400 -174.009354 0.000146
19 0.000035 -0.000048 0.000141 -5.318707 23.874752 -178.444778 0.000153
[Rope1_Seg02]
18 139.999863 -0.000179 0.000000 -0.087177 11.700644 -8.636135 139.999863
19 139.999863 -0.000179 0.000000 0.219665 9.822305 -5.382201 139.999863
[Rope1_Seg03]
18 139.999924 0.000060 -0.000060 -2.851852 20.926781 -12.581034 139.999924
19 139.999924 0.000060 -0.000060 -1.853032 17.213730 -8.921586 139.999924
[Rope1_Seg04]
18 139.999924 -0.000060 -0.000119 -5.168021 19.631964 -18.526878 139.999924
19 139.999924 -0.000060 -0.000119 -8.872544 25.330000 -10.569563 139.999924
[Rope1_Seg05]
18 139.999832 0.000119 -0.000060 12.398657 3.711151 -18.227650 139.999832
19 139.999832 0.000119 -0.000060 0.553707 12.650105 -17.410734 139.999832
[Rope1_Seg06]
18 139.999954 0.000119 -0.000060 9.175985 1.087332 -8.368707 139.999954
19 139.999954 0.000119 -0.000060 15.788353 5.458962 -14.698224 139.999954
[Rope1_Seg07]
18 139.999985 0.000060 0.000000 7.217310 0.027382 -4.730469 139.999985
19 139.999985 0.000060 0.000000 19.256956 2.139964 -8.232742 139.999985
[Rope1_Seg09]
18 121.602913 0.000119 -0.000089 -89.793175 -1.359789 0.847147 121.602913
19 121.602913 0.000119 -0.000089 -89.793175 -1.359789 0.847147 121.602913
[L_mid_hand01]
18 103.859421 1.038730 8.195221 130.544373 -67.584534 -38.866943 104.187431
19 103.859421 1.038730 8.195221 130.544373 -67.584534 -38.866943 104.187431
[L_mid_hand02]
18 105.572853 -4.139662 -10.864139 -168.923172 43.409317 -73.498901 106.211075
19 105.572853 -4.139662 -10.864139 -168.923172 43.409309 -73.498894 106.211075
[L_mid_hand03]
18 104.641464 17.579376 -3.913581 -6.012629 17.808178 74.893669 106.179977
19 104.641464 17.579376 -3.913581 -6.012626 17.808172 74.893661 106.179977
[null_rope02_connect]
18 328.732849 0.000179 -0.000119 -101.954819 61.798161 35.293369 328.732849
19 328.732849 0.000179 -0.000119 -94.313278 70.663307 43.312702 328.732849
[Rope2_Seg01]
18 0.000007 0.000105 0.000000 63.314152 34.969826 -5.732118 0.000105
19 0.000012 0.000105 0.000000 74.248169 26.490013 4.188631 0.000106
[Rope2_Seg02]
18 139.999741 -0.000060 -0.000119 -2.821351 5.432341 -9.324456 139.999756
19 139.999741 -0.000060 -0.000119 -3.089892 3.160276 -9.125559 139.999756
[Rope2_Seg03]
18 140.000107 0.000030 0.000000 -2.611827 9.666945 -13.984430 140.000107
19 140.000107 0.000030 0.000000 -3.284098 6.332600 -14.883017 140.000107
[Rope2_Seg04]
18 139.999802 0.000000 -0.000060 -0.865779 14.310762 -15.868247 139.999802
19 139.999802 0.000000 -0.000060 -1.600452 13.077124 -21.158819 139.999802
[Rope2_Seg05]
18 139.999985 -0.000060 0.000119 8.489290 3.691000 -24.010319 139.999985
19 139.999985 -0.000060 0.000119 6.503648 0.007254 -21.584606 139.999985
[Rope2_Seg06]
18 139.999893 -0.000030 -0.000119 18.892908 -4.674213 -28.932344 139.999893
19 139.999893 -0.000030 -0.000119 11.913209 -10.221487 -23.744961 139.999893
[Rope2_Seg07]
18 139.999893 0.000060 -0.000060 10.588233 -5.856828 -14.731788 139.999893
19 139.999893 0.000060 -0.000060 6.565469 -7.118321 -15.009100 139.999893
[Rope2_Seg09]
18 121.338966 0.000089 -0.000060 33.793236 -1.359788 -0.847141 121.338966
19 121.338966 0.000089 -0.000060 33.793236 -1.359788 -0.847141 121.338966
[R_mid_hand01]
18 104.680779 11.144459 -10.335981 -16.212065 45.237247 70.462852 105.778534
19 104.680779 11.144459 -10.335981 -16.212063 45.237240 70.462852 105.778534
[R_mid_hand02]
18 104.070427 2.443552 8.231699 49.067368 -67.749771 39.286453 104.424065
19 104.070427 2.443552 8.231699 49.067383 -67.749794 39.286465 104.424065
[R_mid_hand03]
18 106.028137 -11.221827 -5.996406 -177.101105 15.551026 -76.585571 106.788818
19 106.028137 -11.221827 -5.996406 -177.101105 15.551026 -76.585571 106.788818
[spine02]
18 129.756927 0.001550 0.000119 -1.181809 -3.989139 9.019493 129.756927
19 129.756927 0.001550 0.000119 -1.171638 -3.975925 8.902314 129.756927
[spine03]
18 78.613998 0.083121 -4.898952 0.935793 4.368042 2.814263 78.766541
19 78.614006 0.083061 -4.898955 0.941291 4.337641 2.891761 78.766541
[pelvis]
18 169.435242 0.051022 0.000000 0.029609 -0.109360 -13.556421 169.435257
19 169.435242 0.051022 0.000000 0.028457 -0.121968 -13.409529 169.435257
[null_rope03_connect]
18 -1.257226 -2.466202 137.391083 -154.289398 -83.860992 -116.029137 137.418976
19 -1.257226 -2.466202 137.391083 -121.698593 -87.875420 -152.244141 137.418976
[null_rope04_connect]
18 -1.259640 -2.480268 -137.844437 -154.289398 -83.860992 -116.029137 137.872513
19 -1.259640 -2.480268 -137.844437 -121.698593 -87.875420 -152.244141 137.872513
[Rope3_Seg01]
18 -0.000029 -0.000022 0.000133 -0.166395 -24.266989 -39.625774 0.000138
19 -0.000029 -0.000021 0.000141 2.237462 -23.978045 -43.315289 0.000145
[Rope3_Seg02]
18 139.999924 -0.000119 0.000060 -2.388905 -5.962725 0.918660 139.999924
19 139.999924 -0.000119 0.000060 -2.550724 -6.769392 1.599605 139.999924
[Rope3_Seg03]
18 139.999924 -0.000119 0.000119 -2.251740 -6.756521 0.654906 139.999924
19 139.999924 -0.000119 0.000119 -2.547117 -8.457456 1.266452 139.999924
[Rope3_Seg04]
18 139.999924 0.000119 0.000000 -0.668826 -4.405303 -2.259403 139.999924
19 139.999924 0.000119 0.000000 -1.160914 -8.743299 -2.444538 139.999924
[Rope3_Seg05]
18 139.999924 -0.000238 0.000060 -3.058194 -12.290195 3.640520 139.999924
19 139.999924 -0.000238 0.000060 -4.181485 -17.088985 9.712779 139.999924
[Rope3_Seg06]
18 139.999893 -0.000119 -0.000060 -3.367207 -15.172680 7.377664 139.999893
19 139.999893 -0.000119 -0.000060 -2.277695 -10.926354 8.605136 139.999893
[Rope3_Seg07]
18 139.999771 0.000060 -0.000119 -0.757350 -8.083877 3.089906 139.999771
19 139.999771 0.000060 -0.000119 -0.443349 -5.148745 2.957696 139.999771
[Rope3_Seg08]
18 139.999985 -0.000060 0.000000 0.052485 -4.392262 1.514184 139.999985
19 139.999985 -0.000060 0.000000 0.070392 -2.858511 1.607806 139.999985
[Rope3_Seg09]
18 90.185997 -0.000179 -0.000060 89.793228 -1.359877 -0.847183 90.185997
19 90.185997 -0.000179 -0.000060 89.793228 -1.359877 -0.847183 90.185997
[R_rear_hand01]
18 103.366196 -6.073594 -10.757982 -177.714203 24.565960 -73.910950 104.101845
19 103.366196 -6.073594 -10.757982 -177.714203 24.565960 -73.910950 104.101845
[R_rear_hand02]
18 100.509819 12.039542 -7.992327 -12.874834 36.868492 72.167213 101.543350
19 100.509819 12.039542 -7.992327 -12.874827 36.868492 72.167221 101.543350
[R_rear_hand03]
18 101.539970 5.215704 5.435467 71.484627 -71.816643 21.513803 101.819031
19 101.539970 5.215704 5.435467 71.484573 -71.816597 21.513800 101.819031
[Rope4_Seg01]
18 0.000000 0.000000 0.000000 -94.431717 -28.687378 -115.376625 0.000000
19 0.000000 0.000000 0.000000 -93.817574 -22.997869 -117.709381 0.000000
[Rope4_Seg02]
18 139.999985 0.000060 0.000119 0.906023 13.387444 3.968066 139.999985
19 139.999985 0.000060 0.000119 1.257890 14.344805 3.679927 139.999985
[Rope4_Seg03]
18 139.999924 0.000000 -0.000238 4.207798 21.049637 2.918150 139.999924
19 139.999924 0.000000 -0.000238 5.290097 20.226139 1.247631 139.999924
[Rope4_Seg04]
18 139.999985 0.000000 0.000119 14.839119 21.286331 -4.957427 139.999985
19 139.999985 0.000000 0.000119 14.239457 18.035843 -5.315963 139.999985
[Rope4_Seg05]
18 139.999802 -0.000060 -0.000119 -48.939606 25.115665 22.047985 139.999802
19 139.999802 -0.000060 -0.000119 -39.573208 24.768145 20.110603 139.999802
[Rope4_Seg06]
18 139.999924 0.000000 0.000060 -87.869362 -8.301966 35.762890 139.999924
19 139.999924 0.000000 0.000060 -99.296722 -0.290202 35.241142 139.999924
[Rope4_Seg07]
18 139.999802 0.000000 0.000000 -4.300768 -11.019585 -0.324131 139.999802
19 139.999802 0.000000 0.000000 -4.611150 -11.254936 -0.558363 139.999802
[Rope4_Seg08]
18 139.999924 0.000000 0.000119 -2.783023 -4.994263 -0.515737 139.999924
19 139.999924 0.000000 0.000119 -2.844692 -5.176796 -0.671985 139.999924
[Rope4_Seg09]
18 90.185791 0.000060 0.000060 -135.617828 2.228885 0.850567 90.185791
19 90.185791 0.000060 0.000060 -135.617828 2.228885 0.850567 90.185791
[L_rear_hand01]
18 101.696655 -8.392275 -7.654577 -12.874834 -36.868492 107.832779 102.329041
19 101.696655 -8.392275 -7.654577 -12.874827 -36.868492 107.832764 102.329041
[L_rear_hand02]
18 102.726799 -1.568258 5.773216 71.484627 71.816643 158.486176 102.900848
19 102.726799 -1.568258 5.773216 71.484573 71.816597 158.486160 102.900848
[L_rear_hand03]
18 104.552910 9.721220 -10.420293 -177.714203 -24.565960 -106.089035 105.519653
19 104.552910 9.721220 -10.420293 -177.714203 -24.565960 -106.089035 105.519653
